<svg width="26" height="21" viewBox="0 0 26 21" fill="none" xmlns="http://www.w3.org/2000/svg">
<g clip-path="url(#clip0_1_519)">
<path d="M5.69531 5.70367H10.4846" stroke="white" stroke-width="1.25" stroke-linecap="round" stroke-linejoin="round"/>
<path d="M23.4716 6.89917H20.3507C18.2078 6.89917 16.4819 8.51234 16.4819 10.5C16.4819 12.4876 18.2222 14.1008 20.3507 14.1008H23.4716C23.5723 14.1008 23.6155 14.1008 23.6586 14.1008C24.3058 14.0576 24.8236 13.5823 24.8667 12.9774C24.8667 12.9342 24.8667 12.8909 24.8667 12.8045V8.20987C24.8667 8.12345 24.8667 8.06584 24.8667 8.03703C24.8236 7.43209 24.3058 6.95678 23.6586 6.91357C23.6155 6.91357 23.5723 6.91357 23.4716 6.91357V6.89917Z" stroke="white" stroke-width="1.25" stroke-miterlimit="133.33"/>
<path d="M23.6298 6.89918C23.5435 4.65226 23.2415 3.26955 22.2635 2.30453C20.8541 0.893005 18.5961 0.893005 14.0801 0.893005H10.4846C5.96861 0.907409 3.71062 0.907409 2.30117 2.30453C0.891724 3.71605 0.891724 5.97737 0.891724 10.5C0.891724 15.0226 0.891724 17.284 2.30117 18.6955C3.71062 20.107 5.96861 20.107 10.4846 20.107H14.0801C18.5961 20.107 20.8541 20.107 22.2635 18.6955C23.2271 17.7305 23.5292 16.3477 23.6298 14.1008" stroke="white" stroke-width="1.25" stroke-miterlimit="133.33"/>
</g>
<defs>
<clipPath id="clip0_1_519">
<rect width="25.7727" height="21" fill="white"/>
</clipPath>
</defs>
</svg>
