<svg width="59" height="58" viewBox="0 0 59 58" fill="none"
    xmlns="http://www.w3.org/2000/svg">
    <path d="M37.6757 7.26733H20.4827C13.1938 7.26733 7.28894 13.1603 7.28894 20.4346V37.5931C7.28894 44.8674 13.1938 50.7604 20.4827 50.7604H37.6757C44.9646 50.7604 50.8695 44.8674 50.8695 37.5931V20.4346C50.8695 13.1603 44.9646 7.26733 37.6757 7.26733ZM47.9206 19.6503H39.484L35.4988 10.1757H37.6757C43.0798 10.1757 47.5172 14.3612 47.9206 19.6503ZM26.638 19.6503L22.6527 10.1757H32.3898L36.3751 19.6503H26.638ZM19.5577 10.2243L23.5291 19.6503H10.2379C10.6135 14.6666 14.5779 10.6685 19.5508 10.2243H19.5577ZM47.9553 37.5931C47.9553 43.2501 43.3441 47.8451 37.6827 47.8451H20.4897C14.8213 47.8451 10.217 43.2432 10.217 37.5931V22.5586H47.9623V37.5931H47.9553ZM24.621 41.5912V28.8334C24.621 28.1323 25.4487 27.7228 26.0468 28.1323L34.685 34.1225C35.4501 34.657 35.4501 35.7537 34.685 36.2882L26.019 42.2783C25.4348 42.6809 24.628 42.2783 24.628 41.5912H24.621Z" fill="#FAF1E8"/>
</svg>